<svg width="32" height="32" viewBox="0 0 32 32" fill="none" xmlns="http://www.w3.org/2000/svg">
<path fill-rule="evenodd" clip-rule="evenodd" d="M17.2929 5.29289C17.6834 4.90237 18.3166 4.90237 18.7071 5.29289L28.7071 15.2929C28.8946 15.4804 29 15.7348 29 16C29 16.2652 28.8946 16.5196 28.7071 16.7071L18.7071 26.7071C18.3166 27.0976 17.6834 27.0976 17.2929 26.7071C16.9024 26.3166 16.9024 25.6834 17.2929 25.2929L25.5858 17H4C3.44772 17 3 16.5523 3 16C3 15.4477 3.44772 15 4 15H25.5858L17.2929 6.70711C16.9024 6.31658 16.9024 5.68342 17.2929 5.29289Z" fill="#722F37"/>
</svg>
