<svg width="32" height="32" viewBox="0 0 32 32" fill="none" xmlns="http://www.w3.org/2000/svg">
<path fill-rule="evenodd" clip-rule="evenodd" d="M14.7071 26.7071C14.3166 27.0976 13.6834 27.0976 13.2929 26.7071L3.29289 16.7071C3.10536 16.5196 3 16.2652 3 16C3 15.7348 3.10536 15.4804 3.29289 15.2929L13.2929 5.29289C13.6834 4.90237 14.3166 4.90237 14.7071 5.29289C15.0976 5.68342 15.0976 6.31658 14.7071 6.70711L6.41422 15L28 15C28.5523 15 29 15.4477 29 16C29 16.5523 28.5523 17 28 17L6.41421 17L14.7071 25.2929C15.0976 25.6834 15.0976 26.3166 14.7071 26.7071Z" fill="#722F37"/>
</svg>
