<svg width="40" height="40" viewBox="0 0 40 40" fill="none" xmlns="http://www.w3.org/2000/svg">
<path d="M20.152 0L12.088 16.64L10.808 9.472C12.8133 9.472 14.456 10.112 15.736 11.392C17.016 12.6293 17.656 14.208 17.656 16.128C17.656 18.4747 16.888 20.352 15.352 21.76C13.8587 23.168 12.024 23.872 9.848 23.872C7.84267 23.872 6.2 23.2533 4.92 22.016C3.64 20.7787 3 19.1787 3 17.216C3 16.1493 3.192 15.1467 3.576 14.208C4.00267 13.2693 4.68533 12.096 5.624 10.688L12.536 0H20.152ZM36.92 0L28.856 16.64L27.576 9.472C29.5813 9.472 31.224 10.112 32.504 11.392C33.784 12.6293 34.424 14.208 34.424 16.128C34.424 18.4747 33.656 20.352 32.12 21.76C30.6267 23.168 28.792 23.872 26.616 23.872C24.6107 23.872 22.968 23.2533 21.688 22.016C20.408 20.7787 19.768 19.1787 19.768 17.216C19.768 16.1493 19.96 15.1467 20.344 14.208C20.7707 13.2693 21.4533 12.096 22.392 10.688L29.304 0H36.92Z" fill="#A94449"/>
</svg>
