<svg width="24" height="24" viewBox="0 0 24 24" fill="none" xmlns="http://www.w3.org/2000/svg">
<g clip-path="url(#clip0_27_136)">
<path d="M12 0C8.7435 0 8.334 0.015 7.0545 0.072C5.775 0.132 4.9035 0.333 4.14 0.63C3.33877 0.930488 2.61321 1.4031 2.0145 2.0145C1.4031 2.61321 0.930488 3.33877 0.63 4.14C0.333 4.902 0.1305 5.775 0.072 7.05C0.015 8.3325 0 8.7405 0 12.0015C0 15.2595 0.015 15.6675 0.072 16.947C0.132 18.225 0.333 19.0965 0.63 19.86C0.9375 20.649 1.347 21.318 2.0145 21.9855C2.6805 22.653 3.3495 23.064 4.1385 23.37C4.9035 23.667 5.7735 23.8695 7.0515 23.928C8.3325 23.985 8.7405 24 12 24C15.2595 24 15.666 23.985 16.947 23.928C18.2235 23.868 19.098 23.667 19.8615 23.37C20.6622 23.0693 21.3872 22.5967 21.9855 21.9855C22.653 21.318 23.0625 20.649 23.37 19.86C23.6655 19.0965 23.868 18.225 23.928 16.947C23.985 15.6675 24 15.2595 24 12C24 8.7405 23.985 8.3325 23.928 7.0515C23.868 5.775 23.6655 4.902 23.37 4.14C23.0695 3.33877 22.5969 2.61321 21.9855 2.0145C21.3868 1.4031 20.6612 0.930488 19.86 0.63C19.095 0.333 18.222 0.1305 16.9455 0.072C15.6645 0.015 15.258 0 11.997 0H12ZM10.9245 2.163H12.0015C15.2055 2.163 15.585 2.1735 16.8495 2.232C18.0195 2.2845 18.6555 2.481 19.0785 2.6445C19.638 2.862 20.0385 3.123 20.4585 3.543C20.8785 3.963 21.138 4.362 21.3555 4.923C21.5205 5.3445 21.7155 5.9805 21.768 7.1505C21.8265 8.415 21.8385 8.7945 21.8385 11.997C21.8385 15.1995 21.8265 15.5805 21.768 16.845C21.7155 18.015 21.519 18.6495 21.3555 19.0725C21.1617 19.5929 20.8549 20.0637 20.457 20.451C20.037 20.871 19.638 21.1305 19.077 21.348C18.657 21.513 18.021 21.708 16.8495 21.762C15.585 21.819 15.2055 21.8325 12.0015 21.8325C8.7975 21.8325 8.4165 21.819 7.152 21.762C5.982 21.708 5.3475 21.513 4.9245 21.348C4.40375 21.1549 3.9324 20.8485 3.5445 20.451C3.14591 20.0634 2.83849 19.592 2.6445 19.071C2.481 18.6495 2.2845 18.0135 2.232 16.8435C2.175 15.579 2.163 15.1995 2.163 11.994C2.163 8.7885 2.175 8.412 2.232 7.1475C2.286 5.9775 2.481 5.3415 2.646 4.9185C2.8635 4.359 3.1245 3.9585 3.5445 3.5385C3.9645 3.1185 4.3635 2.859 4.9245 2.6415C5.3475 2.4765 5.982 2.2815 7.152 2.2275C8.259 2.1765 8.688 2.1615 10.9245 2.16V2.163ZM18.4065 4.155C17.9831 4.155 17.5771 4.32329 17.2779 4.62252C16.9787 4.92176 16.8104 5.32779 16.8104 5.75118C16.8104 6.17458 16.9787 6.58061 17.2779 6.87984C17.5771 7.17908 17.9831 7.34737 18.4065 7.34737C18.8299 7.34737 19.2359 7.17908 19.5352 6.87984C19.8344 6.58061 20.0027 6.17458 20.0027 5.75118C20.0027 5.32779 19.8344 4.92176 19.5352 4.62252C19.2359 4.32329 18.8299 4.155 18.4065 4.155ZM12.0015 5.838C10.3837 5.838 8.83081 6.48071 7.69543 7.62919C6.56004 8.77768 5.92285 10.3378 5.92285 11.9625C5.92285 13.5872 6.56004 15.1473 7.69543 16.2958C8.83081 17.4443 10.3837 18.087 12.0015 18.087C13.6193 18.087 15.1722 17.4443 16.3076 16.2958C17.443 15.1473 18.0802 13.5872 18.0802 11.9625C18.0802 10.3378 17.443 8.77768 16.3076 7.62919C15.1722 6.48071 13.6193 5.838 12.0015 5.838ZM12.0015 7.9995C13.0625 7.9995 14.08 8.42098 14.8303 9.17122C15.5805 9.92146 16.002 10.939 16.002 12C16.002 13.061 15.5805 14.0785 14.8303 14.8288C14.08 15.579 13.0625 16.0005 12.0015 16.0005C10.9405 16.0005 9.92296 15.579 9.17272 14.8288C8.42248 14.0785 8.001 13.061 8.001 12C8.001 10.939 8.42248 9.92146 9.17272 9.17122C9.92296 8.42098 10.9405 7.9995 12.0015 7.9995Z" fill="#F8EEEE"/>
</g>
<defs>
<clipPath id="clip0_27_136">
<rect width="24" height="24" fill="white"/>
</clipPath>
</defs>
</svg>
