<svg width="280" height="81" viewBox="0 0 280 81" fill="none" xmlns="http://www.w3.org/2000/svg">
<path fill-rule="evenodd" clip-rule="evenodd" d="M0.986541 0.0406174C7.86329 -0.0677091 14.7365 0.0406173 21.6065 0.365922C18.1697 0.474249 14.7333 0.5829 11.2965 0.691227C7.74537 0.690902 4.30893 0.473923 0.986541 0.0406174Z" fill="#A94449"/>
<path fill-rule="evenodd" clip-rule="evenodd" d="M0.0199827 1.34183C7.53756 1.34183 15.0555 1.34183 22.573 1.34183C22.698 2.88573 22.698 4.40393 22.573 5.8961C21.7753 4.49404 20.7011 3.35547 19.3512 2.4804C17.1197 2.04482 14.8644 1.88216 12.5853 1.99244C12.5314 11.21 12.5853 20.4271 12.7463 29.6433C12.9397 30.7949 13.5306 31.6625 14.5184 32.2458C12.478 32.6794 10.4372 32.6794 8.39683 32.2458C9.0499 31.8577 9.53318 31.3154 9.84667 30.6193C10.0078 21.0777 10.0616 11.5353 10.0078 1.99244C7.72378 1.86753 5.46848 2.03018 3.24185 2.4804C1.88257 3.31058 0.862339 4.44914 0.181076 5.8961C0.0202405 4.38181 -0.0334358 2.86393 0.0199827 1.34183Z" fill="#FBFBFC"/>
<path fill-rule="evenodd" clip-rule="evenodd" d="M69.2901 1.99244C71.7841 2.06986 72.4285 3.20843 71.2232 5.40814C69.1844 6.04932 68.1643 5.34471 68.1624 3.29366C68.4949 2.79692 68.8709 2.36329 69.2901 1.99244Z" fill="#FAF6F9"/>
<path fill-rule="evenodd" clip-rule="evenodd" d="M231.994 1.99245C234.67 1.92023 235.421 3.0588 234.25 5.40815C232.567 6.21783 231.493 5.67555 231.028 3.78162C231.392 3.20746 231.715 2.61118 231.994 1.99245Z" fill="#F9F6F9"/>
<path fill-rule="evenodd" clip-rule="evenodd" d="M196.554 1.99244C199.067 2.0858 199.712 3.22437 198.487 5.40814C196.235 6.06038 195.322 5.24712 195.748 2.96836C195.973 2.58092 196.242 2.25561 196.554 1.99244Z" fill="#FBFAFB"/>
<path fill-rule="evenodd" clip-rule="evenodd" d="M54.1473 28.6674C54.1473 22.7036 54.1473 16.7395 54.1473 10.7757C53.1807 10.7757 52.2142 10.7757 51.2476 10.7757C51.1996 10.4335 51.2531 10.1081 51.4087 9.79976C52.9688 8.05677 54.6335 6.53858 56.4026 5.24549C56.4026 6.87201 56.4026 8.49854 56.4026 10.1251C64.9944 10.342 64.9944 10.5587 56.4026 10.7757C56.2534 17.0869 56.4145 23.3764 56.8859 29.6433C57.4658 30.8584 58.4324 31.4006 59.7856 31.2699C61.5631 31.1586 63.0129 30.3994 64.1351 28.9927C64.2424 29.1011 64.35 29.2097 64.4573 29.318C62.8963 31.4898 60.8021 32.791 58.1746 33.2217C55.5733 32.8531 54.2311 31.3349 54.1473 28.6674Z" fill="#FAF9FA"/>
<path fill-rule="evenodd" clip-rule="evenodd" d="M197.842 9.79976C198.165 9.79976 198.487 9.79976 198.809 9.79976C198.755 16.4152 198.809 23.0296 198.97 29.6433C199.165 30.6349 199.649 31.4481 200.42 32.0831C198.487 32.3001 196.554 32.3001 194.621 32.0831C195.211 31.7035 195.694 31.2155 196.07 30.6193C196.567 25.0995 196.675 19.5693 196.393 14.0287C196.149 12.9816 195.559 12.2223 194.621 11.7516C195.607 10.9292 196.681 10.2786 197.842 9.79976Z" fill="#FAF9FA"/>
<path fill-rule="evenodd" clip-rule="evenodd" d="M244.882 10.1251C244.776 11.9813 244.883 13.8244 245.204 15.6552C245.461 15.5066 245.568 15.2896 245.526 15.0046C247.545 10.601 250.874 9.08278 255.514 10.4504C255.962 11.5548 255.639 12.368 254.547 12.8902C252.348 13.0082 250.2 12.7913 248.104 12.2395C246.905 13.5222 245.992 14.9861 245.365 16.6312C245.15 21.2938 245.15 25.9567 245.365 30.6193C245.678 31.3154 246.162 31.8577 246.815 32.2458C244.882 32.6794 242.949 32.6794 241.015 32.2458C241.669 31.8577 242.152 31.3154 242.465 30.6193C242.961 25.2078 243.068 19.7863 242.787 14.354C242.59 13.1898 241.999 12.3222 241.015 11.7516C242.157 10.8498 243.446 10.3076 244.882 10.1251Z" fill="#FBFAFB"/>
<path fill-rule="evenodd" clip-rule="evenodd" d="M70.5788 9.79976C70.901 9.79976 71.2232 9.79976 71.5454 9.79976C71.4916 16.4152 71.5454 23.0296 71.7065 29.6433C71.7812 30.6967 72.2645 31.5099 73.1563 32.0831C71.2232 32.3001 69.2901 32.3001 67.3569 32.0831C68.0239 31.7747 68.5071 31.2868 68.8068 30.6193C69.0217 24.7638 69.0217 18.9083 68.8068 13.0528C68.4276 12.5076 67.9443 12.074 67.3569 11.7516C68.3435 10.9292 69.4176 10.2786 70.5788 9.79976Z" fill="#FAF6F9"/>
<path fill-rule="evenodd" clip-rule="evenodd" d="M268.723 9.79975C271.963 9.46176 274.702 10.4377 276.939 12.7275C277.35 13.4487 277.672 14.208 277.906 15.0046C277.954 20.3269 278.169 25.6405 278.55 30.9446C278.985 31.4387 279.469 31.8723 280 32.2458C278.642 32.668 277.299 32.668 275.973 32.2458C275.865 29.4264 275.758 26.6073 275.65 23.7879C274.659 27.6076 272.458 30.4813 269.046 32.4084C264.694 34.019 261.526 32.7721 259.541 28.6674C259.006 25.8438 259.919 23.621 262.28 21.9987C266.587 19.9525 271.098 18.5973 275.812 17.9324C275.124 12.2675 272.01 10.153 266.468 11.5889C264.44 12.3342 262.776 13.5814 261.474 15.3299C261.259 15.0046 261.259 14.6793 261.474 14.354C263.433 12.0395 265.85 10.5216 268.723 9.79975Z" fill="#FAF9FB"/>
<path fill-rule="evenodd" clip-rule="evenodd" d="M114.396 9.79976C116.701 9.58148 118.849 10.0694 120.84 11.2636C121.816 12.0961 122.515 13.1263 122.934 14.354C123.338 19.5443 123.553 24.7491 123.578 29.9687C123.741 30.9501 124.224 31.7094 125.028 32.2458C123.202 32.6794 121.377 32.6794 119.551 32.2458C120.628 31.0649 121.111 29.6551 121.001 28.0168C121.216 24.3301 121.216 20.6431 121.001 16.9565C119.73 11.8928 116.562 10.1036 111.496 11.5889C109.801 12.4168 108.244 13.4471 106.825 14.6793C106.61 19.9925 106.61 25.3061 106.825 30.6193C107.138 31.3154 107.622 31.8577 108.275 32.2458C106.341 32.6794 104.408 32.6794 102.475 32.2458C103.128 31.8577 103.612 31.3154 103.925 30.6193C104.14 24.8721 104.14 19.1253 103.925 13.3781C103.552 12.7304 103.069 12.1881 102.475 11.7516C103.751 10.8885 105.147 10.3463 106.664 10.1251C106.56 11.3371 106.667 12.53 106.986 13.7034C109.256 11.9614 111.726 10.6602 114.396 9.79976Z" fill="#FBF9FA"/>
<path fill-rule="evenodd" clip-rule="evenodd" d="M51.2476 10.7757C52.2142 10.7757 53.1807 10.7757 54.1473 10.7757C54.1473 16.7395 54.1473 22.7036 54.1473 28.6674C53.8261 22.8686 53.7188 17.0131 53.8251 11.101C52.8956 11.2005 52.0363 11.0922 51.2476 10.7757Z" fill="#A94449"/>
<path fill-rule="evenodd" clip-rule="evenodd" d="M163.691 1.34183C165.636 1.23481 167.569 1.34313 169.49 1.66714C169.224 1.95536 168.902 2.06368 168.523 1.99244C168.471 2.65183 168.525 3.30244 168.685 3.94427C171.966 12.5431 175.296 21.1093 178.672 29.6433C181.85 21.4278 184.965 13.1865 188.016 4.92018C188.473 3.50934 188.097 2.42477 186.888 1.66714C188.499 1.2335 190.11 1.2335 191.721 1.66714C190.281 2.63297 189.261 3.93418 188.66 5.57079C185.238 14.3244 181.908 23.1076 178.672 31.9205C177.887 33.25 177.243 33.1417 176.739 31.5952C173.302 22.7036 169.866 13.8117 166.429 4.92018C165.685 3.57505 164.772 2.38248 163.691 1.34183Z" fill="#FBF9FB"/>
<path fill-rule="evenodd" clip-rule="evenodd" d="M233.927 9.79976C234.515 16.1894 234.783 22.6955 234.733 29.318C234.672 30.5321 235.156 31.454 236.183 32.0831C234.25 32.3001 232.316 32.3001 230.383 32.0831C231.05 31.7747 231.533 31.2868 231.833 30.6193C232.048 24.7638 232.048 18.9083 231.833 13.0528C231.454 12.5076 230.971 12.074 230.383 11.7516C231.505 10.9777 232.686 10.3271 233.927 9.79976Z" fill="#F9F6F8"/>
<path fill-rule="evenodd" clip-rule="evenodd" d="M244.882 10.1251C245.097 11.7516 245.311 13.3781 245.526 15.0046C245.568 15.2896 245.461 15.5066 245.204 15.6552C244.883 13.8244 244.776 11.9813 244.882 10.1251Z" fill="#A94449"/>
<path fill-rule="evenodd" clip-rule="evenodd" d="M149.837 17.6071C143.813 17.3943 137.906 17.6113 132.116 18.2577C131.321 23.8396 133.361 27.9059 138.238 30.4566C142.71 31.7894 146.469 30.7048 149.514 27.2036C149.837 26.9866 150.159 26.9866 150.481 27.2036C149.074 28.7328 147.571 30.1424 145.97 31.4325C139.034 34.6286 133.826 32.8395 130.344 26.065C128.494 19.4054 130.481 14.3631 136.305 10.9383C140.697 8.95429 144.671 9.55058 148.226 12.7275C149.342 14.1572 149.879 15.7837 149.837 17.6071Z" fill="#FBF9FB"/>
<path fill-rule="evenodd" clip-rule="evenodd" d="M147.259 16.3059C144.96 16.7388 142.544 16.9555 140.01 16.9565C137.476 16.9555 135.06 16.7388 132.761 16.3059C134.537 11.5658 137.866 9.88499 142.749 11.2636C145.03 12.2399 146.533 13.9204 147.259 16.3059Z" fill="#A94449"/>
<path fill-rule="evenodd" clip-rule="evenodd" d="M132.761 16.3059C135.06 16.7388 137.476 16.9555 140.01 16.9565C142.544 16.9555 144.96 16.7388 147.259 16.3059C147.55 16.5365 147.658 16.8618 147.581 17.2818C142.534 17.2818 137.486 17.2818 132.439 17.2818C132.362 16.8618 132.47 16.5365 132.761 16.3059Z" fill="#A94449"/>
<path fill-rule="evenodd" clip-rule="evenodd" d="M225.55 16.3059C225.55 16.7395 225.55 17.1734 225.55 17.6071C219.587 17.4997 213.681 17.608 207.83 17.9324C207.061 22.8211 208.564 26.779 212.341 29.806C217.291 32.046 221.587 31.1785 225.228 27.2036C225.55 26.9866 225.873 26.9866 226.195 27.2036C224.262 29.8093 221.792 31.6528 218.785 32.7337C211.993 33.7825 207.644 31.0174 205.736 24.4385C204.739 17.6106 207.37 12.8937 213.63 10.2877C217.877 9.10491 221.475 10.1351 224.423 13.3781C224.959 14.2977 225.335 15.2737 225.55 16.3059Z" fill="#FBF9FB"/>
<path fill-rule="evenodd" clip-rule="evenodd" d="M208.475 16.3059C210.774 16.7388 213.19 16.9555 215.724 16.9565C218.257 16.9555 220.674 16.7388 222.973 16.3059C223.264 16.5365 223.372 16.8618 223.295 17.2818C218.247 17.2818 213.2 17.2818 208.152 17.2818C208.076 16.8618 208.183 16.5365 208.475 16.3059Z" fill="#A94449"/>
<path fill-rule="evenodd" clip-rule="evenodd" d="M222.973 16.3059C220.674 16.7388 218.257 16.9555 215.724 16.9565C213.19 16.9555 210.774 16.7388 208.475 16.3059C209.941 11.9315 212.948 10.1423 217.496 10.9383C220.229 11.8007 222.055 13.5899 222.973 16.3059Z" fill="#A94449"/>
<path fill-rule="evenodd" clip-rule="evenodd" d="M149.837 17.6071C143.962 17.828 138.055 18.0449 132.116 18.2577C137.906 17.6113 143.813 17.3943 149.837 17.6071Z" fill="#A94449"/>
<path fill-rule="evenodd" clip-rule="evenodd" d="M225.55 16.3059C225.857 16.7675 225.964 17.3094 225.873 17.9324C219.858 17.9324 213.844 17.9324 207.83 17.9324C213.681 17.608 219.587 17.4997 225.55 17.6071C225.55 17.1734 225.55 16.7395 225.55 16.3059Z" fill="#A94449"/>
<path fill-rule="evenodd" clip-rule="evenodd" d="M275.167 18.2577C276.192 23.5039 274.367 27.5702 269.69 30.4566C264.565 31.9992 262.041 30.1017 262.119 24.7638C263.277 22.4105 265.156 20.9466 267.757 20.3722C270.31 19.8104 272.78 19.1058 275.167 18.2577Z" fill="#A94449"/>
<path fill-rule="evenodd" clip-rule="evenodd" d="M35.7827 9.79976C39.1199 9.38662 41.9658 10.3625 44.3206 12.7275C44.7314 13.4487 45.0536 14.208 45.2872 15.0046C45.3945 19.8842 45.5021 24.7638 45.6094 29.6433C45.7476 30.8151 46.3385 31.6824 47.3814 32.2458C46.0234 32.668 44.6808 32.668 43.3541 32.2458C43.2468 29.4264 43.1392 26.6073 43.0319 23.7879C41.8617 28.1125 39.2304 31.0945 35.1383 32.7337C29.4575 33.6108 26.7189 31.171 26.9226 25.4144C27.961 23.39 29.5184 21.9261 31.5943 21.0228C35.3648 19.5833 39.231 18.5531 43.193 17.9324C42.5096 12.2691 39.395 10.1547 33.8496 11.5889C31.8217 12.3342 30.157 13.5814 28.8557 15.3299C28.6408 15.0046 28.6408 14.6793 28.8557 14.354C30.7437 12.1302 33.0528 10.612 35.7827 9.79976Z" fill="#FAF8FA"/>
<path fill-rule="evenodd" clip-rule="evenodd" d="M42.5486 18.2577C43.4485 22.8136 42.0524 26.6632 38.3602 29.806C35.3748 31.5812 32.6362 31.3099 30.1444 28.9927C28.5573 24.6629 30.0072 21.8978 34.4939 20.6975C37.2315 19.9268 39.9166 19.1136 42.5486 18.2577Z" fill="#A94449"/>
<path fill-rule="evenodd" clip-rule="evenodd" d="M91.8431 35.8241C91.6282 35.8241 91.4137 35.8241 91.1988 35.8241C92.1263 33.4078 93.1467 31.022 94.2595 28.6674C94.4744 27.0409 94.4744 25.4144 94.2595 23.7879C93.1257 27.9687 90.6021 30.9508 86.6881 32.7337C80.8492 33.7747 78.003 31.3349 78.1502 25.4144C78.7263 23.6512 79.8539 22.4043 81.5332 21.6734C85.4851 19.9818 89.5662 18.6806 93.7762 17.7697C94.0752 17.6435 94.2901 17.4265 94.4206 17.1191C93.2656 12.0327 90.1513 10.1891 85.0772 11.5889C83.0494 12.3342 81.3846 13.5814 80.0833 15.3299C79.8684 15.0046 79.8684 14.6793 80.0833 14.354C84.0017 9.74413 88.6735 8.71389 94.0984 11.2636C95.3488 12.2161 96.1543 13.463 96.5148 15.0046C96.6221 19.7759 96.7297 24.5468 96.837 29.318C96.8244 30.6619 97.4153 31.6378 98.609 32.2458C97.3335 32.6231 96.0448 32.6775 94.7428 32.4084C94.5015 31.8444 94.3404 31.2481 94.2595 30.6193C93.5323 32.412 92.7269 34.1469 91.8431 35.8241Z" fill="#FBF8FA"/>
<path fill-rule="evenodd" clip-rule="evenodd" d="M93.7762 18.2577C94.6825 22.8032 93.2865 26.6525 89.5878 29.806C87.6856 30.8623 85.6452 31.1876 83.4663 30.7819C80.0176 28.3233 79.6954 25.5038 82.4997 22.324C83.1989 21.8081 83.9508 21.3741 84.755 21.0228C87.8261 20.1871 90.8331 19.2652 93.7762 18.2577Z" fill="#A94449"/>
<path fill-rule="evenodd" clip-rule="evenodd" d="M185.922 44.9327C186.347 45.9405 186.562 47.079 186.566 48.3484C186.459 49.4869 186.351 50.6255 186.244 51.7641C185.923 49.4973 185.815 47.2202 185.922 44.9327Z" fill="#FDFEFE"/>
<path fill-rule="evenodd" clip-rule="evenodd" d="M148.548 47.2098C148.457 46.9531 148.296 46.7362 148.065 46.5592C147.904 48.2908 147.85 50.0256 147.904 51.7641C147.479 49.5377 147.479 47.2606 147.904 44.9327C148.816 46.5592 149.729 48.1857 150.642 49.8122C150.697 48.175 150.858 46.5485 151.125 44.9327C151.555 47.2098 151.555 49.4869 151.125 51.7641C150.104 50.3545 149.245 48.8363 148.548 47.2098Z" fill="#FBFAFC"/>
<path fill-rule="evenodd" clip-rule="evenodd" d="M156.925 44.9327C158.231 44.8273 159.52 44.9356 160.791 45.258C160.293 45.5677 159.756 45.676 159.18 45.5833C158.965 53.8242 158.751 53.8242 158.536 45.5833C157.801 45.7209 157.264 45.5039 156.925 44.9327Z" fill="#FAF4F8"/>
<path fill-rule="evenodd" clip-rule="evenodd" d="M193.01 44.9327C194.009 44.8201 194.922 45.0371 195.748 45.5833C195.82 47.2241 195.552 47.2785 194.943 45.7459C192.99 45.3992 192.561 46.0498 193.654 47.6978C195.443 48.1955 196.142 49.3341 195.748 51.1135C194.651 51.9518 193.577 51.9518 192.526 51.1135C192.311 50.6798 192.311 50.2459 192.526 49.8122C192.956 50.9846 193.762 51.3643 194.943 50.9508C195.435 50.0136 195.221 49.2547 194.298 48.6737C192.294 47.9606 191.864 46.7137 193.01 44.9327Z" fill="#F8F3F6"/>
<path fill-rule="evenodd" clip-rule="evenodd" d="M201.387 44.9327C202.693 44.8273 203.982 44.9356 205.253 45.258C204.755 45.5677 204.218 45.676 203.642 45.5833C203.427 53.8242 203.212 53.8242 202.997 45.5833C202.263 45.7209 201.725 45.5039 201.387 44.9327Z" fill="#F8F6F9"/>
<path fill-rule="evenodd" clip-rule="evenodd" d="M166.59 44.9327C167.168 46.6389 167.436 48.4824 167.396 50.4629C168.147 51.3304 168.899 51.3304 169.651 50.4629C169.706 48.6099 169.867 46.7667 170.134 44.9327C170.509 46.8754 170.563 48.8272 170.296 50.7882C169.089 52.0546 167.907 52.0546 166.751 50.7882C166.591 48.8393 166.537 46.8874 166.59 44.9327Z" fill="#F9F7F9"/>
<path fill-rule="evenodd" clip-rule="evenodd" d="M128.25 44.9327C129.223 44.879 130.189 44.9333 131.15 45.0953C132.307 46.0618 132.414 47.146 131.472 48.3484C130.662 48.7557 129.803 48.9183 128.895 48.8363C128.997 49.8357 128.889 50.8116 128.572 51.7641C128.251 49.4973 128.144 47.2202 128.25 44.9327Z" fill="#FCFAFC"/>
<path fill-rule="evenodd" clip-rule="evenodd" d="M128.895 45.5833C129.548 45.5306 130.192 45.5849 130.828 45.7459C131.687 46.5049 131.687 47.2641 130.828 48.0231C130.192 48.1841 129.548 48.2384 128.895 48.1857C128.895 47.3181 128.895 46.4509 128.895 45.5833Z" fill="#A94449"/>
<path fill-rule="evenodd" clip-rule="evenodd" d="M218.462 71.2823C218.123 71.3308 217.801 71.2768 217.496 71.1197C218.031 70.6356 218.353 70.0394 218.462 69.3305C218.903 67.7398 219.118 66.1133 219.107 64.451C218.748 60.9731 218.318 57.5031 217.818 54.0412C218.061 49.2973 220.531 47.1828 225.228 47.6978C228.685 49.3035 230.296 52.0686 230.061 55.993C229.369 63.5827 225.502 68.6789 218.462 71.2823Z" fill="#FDFDFD"/>
<path fill-rule="evenodd" clip-rule="evenodd" d="M176.256 44.9327C179.99 44.4112 180.957 45.7668 179.156 48.999C179.5 49.9118 179.93 50.7794 180.444 51.6014C180.079 51.8451 179.757 51.7911 179.478 51.4388C179.186 50.607 178.863 49.7937 178.511 48.999C178.095 48.8396 177.665 48.7853 177.223 48.8363C177.223 49.8123 177.223 50.7882 177.223 51.7641C176.9 51.7641 176.578 51.7641 176.256 51.7641C176.256 49.4869 176.256 47.2098 176.256 44.9327Z" fill="#F6ECF2"/>
<path fill-rule="evenodd" clip-rule="evenodd" d="M177.223 45.5833C179.368 45.2072 180.012 46.0205 179.156 48.0231C178.52 48.1841 177.876 48.2384 177.223 48.1857C177.223 47.3181 177.223 46.4509 177.223 45.5833Z" fill="#A94449"/>
<path fill-rule="evenodd" clip-rule="evenodd" d="M212.019 44.9327C212.542 44.8871 212.918 45.1041 213.146 45.5833C213.679 47.4073 214.162 49.2508 214.596 51.1135C214.489 51.3305 214.381 51.5471 214.274 51.7641C213.975 51.3773 213.867 50.9437 213.952 50.4629C212.557 50.213 211.483 50.6467 210.73 51.7641C210.623 51.5471 210.515 51.3305 210.408 51.1135C210.996 49.0605 211.533 47.0003 212.019 44.9327Z" fill="#F8F5F8"/>
<path fill-rule="evenodd" clip-rule="evenodd" d="M212.341 46.2339C212.952 47.2114 213.382 48.2957 213.63 49.4869C212.9 49.8601 212.148 49.9144 211.374 49.6496C211.771 48.5361 212.093 47.3975 212.341 46.2339Z" fill="#A94449"/>
<path fill-rule="evenodd" clip-rule="evenodd" d="M109.886 44.9327C110.779 44.8416 111.584 45.0586 112.302 45.5833C112.517 46.0169 112.517 46.4509 112.302 46.8845C111.784 45.6308 110.925 45.3055 109.724 45.9086C109.51 47.5351 109.51 49.1616 109.724 50.7882C110.915 51.4056 111.72 51.0803 112.141 49.8122C112.472 51.5852 111.72 52.1818 109.886 51.6014C109.295 51.4388 108.919 51.0591 108.758 50.4629C108.543 49.0533 108.543 47.6434 108.758 46.2339C108.98 45.6321 109.356 45.1981 109.886 44.9327Z" fill="#FAF7FA"/>
<path fill-rule="evenodd" clip-rule="evenodd" d="M148.548 47.2098C148.333 48.728 148.118 50.2459 147.904 51.7641C147.85 50.0256 147.904 48.2908 148.065 46.5592C148.296 46.7362 148.457 46.9531 148.548 47.2098Z" fill="#A94449"/>
<path fill-rule="evenodd" clip-rule="evenodd" d="M100.864 44.9327C101.388 44.8871 101.763 45.1041 101.992 45.5833C102.743 47.6275 103.119 49.6877 103.12 51.7641C102.82 51.3773 102.713 50.9437 102.797 50.4629C101.402 50.213 100.329 50.6467 99.5756 51.7641C99.4683 51.5471 99.3607 51.3305 99.2534 51.1135C99.7563 49.0387 100.293 46.9782 100.864 44.9327Z" fill="#F8F2F6"/>
<path fill-rule="evenodd" clip-rule="evenodd" d="M101.187 46.2339C101.637 47.3341 102.066 48.4726 102.475 49.6496C101.724 49.8666 100.972 49.8666 100.22 49.6496C100.617 48.5361 100.939 47.3975 101.187 46.2339Z" fill="#A94449"/>
<path fill-rule="evenodd" clip-rule="evenodd" d="M137.594 44.9327C138.171 46.6389 138.44 48.4824 138.399 50.4629C139.151 51.3304 139.903 51.3304 140.654 50.4629C141.084 43.0892 141.298 43.0892 141.299 50.4629C140.275 52.0474 139.093 52.1557 137.755 50.7882C137.594 48.8393 137.54 46.8874 137.594 44.9327Z" fill="#FAF7FA"/>
<path fill-rule="evenodd" clip-rule="evenodd" d="M118.262 44.9327C118.84 46.6389 119.108 48.4824 119.068 50.4629C119.736 51.1616 120.488 51.2703 121.323 50.7882C121.752 42.9808 121.967 42.9808 121.968 50.7882C120.786 52.0894 119.605 52.0894 118.423 50.7882C118.263 48.8393 118.209 46.8874 118.262 44.9327Z" fill="#F6EEF2"/>
<path fill-rule="evenodd" clip-rule="evenodd" d="M91.1988 35.8241C91.4137 35.8241 91.6282 35.8241 91.8431 35.8241C89.8056 40.1572 87.2819 44.1692 84.2717 47.8604C84.0729 48.1691 84.1264 48.4401 84.4328 48.6737C87.5271 49.9108 90.5344 51.3204 93.454 52.9026C103.355 58.6605 113.45 64.0824 123.74 69.1679C145.926 80.0464 169.123 82.9741 193.332 77.9511C201.019 76.3558 208.537 74.1873 215.885 71.445C217 71.0205 217.859 70.3159 218.462 69.3305C218.353 70.0394 218.031 70.6356 217.496 71.1197C217.801 71.2768 218.123 71.3308 218.462 71.2823C200.834 78.4839 182.469 81.683 163.368 80.8789C150.606 79.7718 138.363 76.6271 126.639 71.445C115.354 66.0189 104.292 60.1634 93.454 53.8786C90.237 52.173 86.9617 50.6008 83.6274 49.1616C81.2277 51.5991 78.704 53.9306 76.056 56.1557C67.1646 62.3996 57.6063 63.7008 47.3814 60.0593C46.1999 59.3004 45.0188 58.5411 43.8373 57.7822C39.7633 53.5019 39.9779 49.4899 44.4817 45.7459C46.5305 44.6227 48.6785 43.7554 50.9254 43.1435C62.047 41.7209 72.7329 43.2931 82.983 47.8604C83.9544 46.9879 84.8133 46.012 85.5605 44.9327C87.5287 41.9304 89.408 38.894 91.1988 35.8241Z" fill="#F8F3F6"/>
<path fill-rule="evenodd" clip-rule="evenodd" d="M55.1139 43.3061C64.668 42.9041 73.7965 44.6932 82.4997 48.6737C74.5955 58.5642 64.3932 62.5762 51.892 60.71C47.9629 59.8798 44.7949 57.8739 42.3875 54.6918C41.1277 52.3538 41.3426 50.1854 43.0319 48.1857C46.5005 45.1213 50.5279 43.4948 55.1139 43.3061Z" fill="#A94449"/>
</svg>
